<svg xmlns="http://www.w3.org/2000/svg" xmlns:xlink="http://www.w3.org/1999/xlink" viewBox="0 0 101.88 69.62"><defs><style>.cls-1{filter:url(#filter);}.cls-2{fill:url(#linear-gradient);}.cls-3{fill:url(#linear-gradient-2);}.cls-4{fill:url(#linear-gradient-3);}.cls-5{fill:none;stroke:#bed7fb;stroke-miterlimit:10;stroke-width:0.67px;}</style><filter id="filter"><feOffset dx="1.35" dy="1.35" input="SourceAlpha"/><feGaussianBlur stdDeviation="1.35" result="blur"/><feFlood flood-color="#114a89"/><feComposite operator="in" in2="blur"/><feComposite in="SourceGraphic"/></filter><linearGradient id="linear-gradient" x1="33.7" y1="24.92" x2="33.7" y2="56.48" gradientUnits="userSpaceOnUse"><stop offset="0" stop-color="#eef9ff"/><stop offset="1" stop-color="#a7c8ea"/></linearGradient><linearGradient id="linear-gradient-2" x1="24.49" y1="58.57" x2="50.04" y2="37.61" gradientUnits="userSpaceOnUse"><stop offset="0" stop-color="#a7c7de" stop-opacity="0"/><stop offset="1" stop-color="#a7c7de"/></linearGradient><linearGradient id="linear-gradient-3" x1="67.06" y1="24.92" x2="67.06" y2="56.48" gradientTransform="translate(44.26 -37.23) rotate(45)" xlink:href="#linear-gradient"/></defs><g id="Layer_2" data-name="Layer 2"><g id="text"><g class="cls-1"><path class="cls-2" d="M25.15,19.66H67.06a0,0,0,0,1,0,0V69.29a0,0,0,0,1,0,0H25.15A24.81,24.81,0,0,1,.33,44.48v0A24.81,24.81,0,0,1,25.15,19.66Z"/><path class="cls-3" d="M25.15,19.66H67.06a0,0,0,0,1,0,0V69.29a0,0,0,0,1,0,0H25.15A24.81,24.81,0,0,1,.33,44.48v0A24.81,24.81,0,0,1,25.15,19.66Z"/><circle class="cls-4" cx="67.06" cy="34.81" r="34.48" transform="translate(-4.97 57.62) rotate(-45)"/><path class="cls-5" d="M67.06.33a34.49,34.49,0,0,0-31,19.33H25.15A24.82,24.82,0,0,0,.33,44.48h0A24.81,24.81,0,0,0,25.15,69.29H67.06a34.48,34.48,0,0,0,0-69Z"/></g></g></g></svg>