<svg xmlns="http://www.w3.org/2000/svg" xmlns:xlink="http://www.w3.org/1999/xlink" viewBox="0 0 101.88 113.54"><defs><style>.cls-1,.cls-7,.cls-8{stroke:#eef9ff;}.cls-1,.cls-6,.cls-7,.cls-8{stroke-miterlimit:10;}.cls-1,.cls-7{stroke-width:0.27px;}.cls-1{fill:url(#linear-gradient);}.cls-2{filter:url(#filter);}.cls-3{fill:url(#linear-gradient-2);}.cls-4{fill:url(#linear-gradient-3);}.cls-5{fill:url(#linear-gradient-4);}.cls-6{fill:none;stroke:#bed7fb;stroke-width:0.67px;}.cls-7{fill:url(#linear-gradient-5);}.cls-8{stroke-width:0.17px;fill:url(#linear-gradient-6);}</style><linearGradient id="linear-gradient" x1="26.45" y1="64.82" x2="26.45" y2="98.03" gradientUnits="userSpaceOnUse"><stop offset="0" stop-color="#eef9ff"/><stop offset="0.12" stop-color="#e1f6fe"/><stop offset="0.34" stop-color="#c0eefa"/><stop offset="0.63" stop-color="#8ae2f3"/><stop offset="0.99" stop-color="#41d1ea"/><stop offset="1" stop-color="#3ed0ea"/></linearGradient><filter id="filter"><feOffset dx="1.35" dy="1.35" input="SourceAlpha"/><feGaussianBlur stdDeviation="1.35" result="blur"/><feFlood flood-color="#114a89"/><feComposite operator="in" in2="blur"/><feComposite in="SourceGraphic"/></filter><linearGradient id="linear-gradient-2" x1="33.7" y1="24.92" x2="33.7" y2="56.48" gradientUnits="userSpaceOnUse"><stop offset="0" stop-color="#eef9ff"/><stop offset="1" stop-color="#a7c8ea"/></linearGradient><linearGradient id="linear-gradient-3" x1="24.49" y1="58.57" x2="50.04" y2="37.61" gradientUnits="userSpaceOnUse"><stop offset="0" stop-color="#a7c7de" stop-opacity="0"/><stop offset="1" stop-color="#a7c7de"/></linearGradient><linearGradient id="linear-gradient-4" x1="67.06" y1="24.92" x2="67.06" y2="56.48" xlink:href="#linear-gradient-2"/><linearGradient id="linear-gradient-5" x1="70.76" y1="55.14" x2="70.76" y2="88.36" xlink:href="#linear-gradient"/><linearGradient id="linear-gradient-6" x1="50.94" y1="91.22" x2="50.94" y2="112.07" xlink:href="#linear-gradient"/></defs><g id="Layer_2" data-name="Layer 2"><g id="text"><path class="cls-1" d="M38.08,84.22h0L38,84a11.12,11.12,0,0,0-.57-1.38L27.66,59a1.32,1.32,0,0,0-2.43,0L15.45,82.65A11.12,11.12,0,0,0,14.88,84l-.08.19h0A12.23,12.23,0,1,0,38.68,88,12.53,12.53,0,0,0,38.08,84.22Z"/><g class="cls-2"><path class="cls-3" d="M67.06,69.29H25.15A24.81,24.81,0,0,1,.33,44.48h0A24.82,24.82,0,0,1,25.15,19.66H67.06Z"/><path class="cls-4" d="M67.06,69.29H25.15A24.81,24.81,0,0,1,.33,44.48h0A24.82,24.82,0,0,1,25.15,19.66H67.06Z"/><circle class="cls-5" cx="67.06" cy="34.81" r="34.48"/><path class="cls-6" d="M67.06.33a34.49,34.49,0,0,0-31,19.33H25.15A24.82,24.82,0,0,0,.33,44.48h0A24.81,24.81,0,0,0,25.15,69.29H67.06a34.48,34.48,0,0,0,0-69Z"/></g><path class="cls-7" d="M82.39,74.54h0l-.08-.19A11.12,11.12,0,0,0,81.76,73L72,49.28a1.31,1.31,0,0,0-2.42,0L59.77,73a11.12,11.12,0,0,0-.57,1.38l-.08.19h0a12.24,12.24,0,1,0,23.26,0Z"/><path class="cls-8" d="M58.24,103.4h0l0-.12a6.63,6.63,0,0,0-.36-.87L51.7,87.54a.82.82,0,0,0-1.52,0L44,102.41a6.63,6.63,0,0,0-.36.87l0,.12h0a7.68,7.68,0,1,0,15,2.38A7.8,7.8,0,0,0,58.24,103.4Z"/></g></g></svg>