<svg xmlns="http://www.w3.org/2000/svg" xmlns:xlink="http://www.w3.org/1999/xlink" viewBox="0 0 105.2 117.88"><defs><style>.cls-1{stroke:#fcdf8f;stroke-width:0.76px;fill:url(#linear-gradient);}.cls-1,.cls-6,.cls-7,.cls-8{stroke-miterlimit:10;}.cls-2{filter:url(#filter);}.cls-3{fill:url(#linear-gradient-2);}.cls-4{fill:url(#linear-gradient-3);}.cls-5{fill:url(#linear-gradient-4);}.cls-6{fill:none;stroke:#bed7fb;stroke-width:0.69px;}.cls-7,.cls-8{stroke:#eef9ff;}.cls-7{stroke-width:0.28px;fill:url(#linear-gradient-5);}.cls-8{stroke-width:0.17px;fill:url(#linear-gradient-6);}</style><linearGradient id="linear-gradient" x1="36.29" y1="69.9" x2="36.29" y2="104.17" gradientUnits="userSpaceOnUse"><stop offset="0" stop-color="#fad05d"/><stop offset="1" stop-color="#f89c28"/></linearGradient><filter id="filter"><feOffset dx="1.39" dy="1.39" input="SourceAlpha"/><feGaussianBlur stdDeviation="1.39" result="blur"/><feFlood flood-color="#114a89"/><feComposite operator="in" in2="blur"/><feComposite in="SourceGraphic"/></filter><linearGradient id="linear-gradient-2" x1="34.8" y1="25.74" x2="34.8" y2="58.32" gradientUnits="userSpaceOnUse"><stop offset="0" stop-color="#eef9ff"/><stop offset="1" stop-color="#a7c8ea"/></linearGradient><linearGradient id="linear-gradient-3" x1="25.28" y1="60.48" x2="51.68" y2="38.83" gradientUnits="userSpaceOnUse"><stop offset="0" stop-color="#a7c7de" stop-opacity="0"/><stop offset="1" stop-color="#a7c7de"/></linearGradient><linearGradient id="linear-gradient-4" x1="69.25" y1="25.74" x2="69.25" y2="58.32" gradientTransform="translate(93.64 -38.17) rotate(80.78)" xlink:href="#linear-gradient-2"/><linearGradient id="linear-gradient-5" x1="73.07" y1="56.94" x2="73.07" y2="91.24" gradientUnits="userSpaceOnUse"><stop offset="0" stop-color="#eef9ff"/><stop offset="0.12" stop-color="#e1f6fe"/><stop offset="0.34" stop-color="#c0eefa"/><stop offset="0.63" stop-color="#8ae2f3"/><stop offset="0.99" stop-color="#41d1ea"/><stop offset="1" stop-color="#3ed0ea"/></linearGradient><linearGradient id="linear-gradient-6" x1="55.77" y1="94.83" x2="55.77" y2="116.36" xlink:href="#linear-gradient-5"/></defs><g id="Layer_2" data-name="Layer 2"><g id="text"><polygon class="cls-1" points="46.68 68.33 39.22 82.71 55.74 82.71 28.57 109.36 34.43 94.44 16.84 94.44 25.9 68.33 46.68 68.33"/><g class="cls-2"><path class="cls-3" d="M26,20.3H69.25a0,0,0,0,1,0,0V71.55a0,0,0,0,1,0,0H26A25.62,25.62,0,0,1,.34,45.93v0A25.62,25.62,0,0,1,26,20.3Z"/><path class="cls-4" d="M26,20.3H69.25a0,0,0,0,1,0,0V71.55a0,0,0,0,1,0,0H26A25.62,25.62,0,0,1,.34,45.93v0A25.62,25.62,0,0,1,26,20.3Z"/><circle class="cls-5" cx="69.25" cy="35.95" r="35.6" transform="translate(22.68 98.55) rotate(-80.78)"/><path class="cls-6" d="M69.25.34a35.59,35.59,0,0,0-32,20H26A25.64,25.64,0,0,0,.34,45.93h0A25.63,25.63,0,0,0,26,71.55H69.25a35.61,35.61,0,0,0,0-71.21Z"/></g><path class="cls-7" d="M85.08,77h0l-.08-.2a12,12,0,0,0-.6-1.43L74.32,50.88a1.35,1.35,0,0,0-2.5,0L61.72,75.35a11.93,11.93,0,0,0-.59,1.43l-.08.2h0a12.79,12.79,0,0,0-.53,5.41A12.63,12.63,0,1,0,85.08,77Z"/><path class="cls-8" d="M63.31,107.41h0l0-.13a8.93,8.93,0,0,0-.37-.9L56.55,91A.85.85,0,0,0,55,91l-6.34,15.36a7.74,7.74,0,0,0-.37.9l-.05.13h0a7.84,7.84,0,0,0-.34,3.4,7.93,7.93,0,1,0,15.42-3.4Z"/></g></g></svg>