<svg xmlns="http://www.w3.org/2000/svg" xmlns:xlink="http://www.w3.org/1999/xlink" viewBox="0 0 114.71 108.85"><defs><style>.cls-1{stroke:#fce39f;fill:url(#linear-gradient);filter:url(#filter);}.cls-1,.cls-2,.cls-7{stroke-miterlimit:10;}.cls-1,.cls-2{stroke-width:0.74px;}.cls-2{stroke:#fcdf8f;fill:url(#linear-gradient-2);filter:url(#filter-2);}.cls-3{filter:url(#filter-3);}.cls-4{fill:url(#linear-gradient-3);}.cls-5{fill:url(#linear-gradient-4);}.cls-6{fill:url(#linear-gradient-5);}.cls-7{fill:none;stroke:#bed7fb;stroke-width:0.56px;}</style><linearGradient id="linear-gradient" x1="50.55" y1="16.97" x2="50.55" y2="89.22" gradientUnits="userSpaceOnUse"><stop offset="0" stop-color="#faf7de"/><stop offset="1" stop-color="#f0bf7b"/></linearGradient><filter id="filter" x="0" y="0" width="105" height="106" filterUnits="userSpaceOnUse"><feOffset dx="1.69" dy="1.69" input="SourceAlpha"/><feGaussianBlur stdDeviation="1.69" result="blur"/><feFlood flood-color="#114a89"/><feComposite operator="in" in2="blur"/><feComposite in="SourceGraphic"/></filter><linearGradient id="linear-gradient-2" x1="50.55" y1="21.74" x2="50.55" y2="74.93" gradientUnits="userSpaceOnUse"><stop offset="0" stop-color="#fad05d"/><stop offset="1" stop-color="#f89c28"/></linearGradient><filter id="filter-2" x="8.77" y="9.77" width="93" height="92" filterUnits="userSpaceOnUse"><feOffset dx="4.43" dy="4.43" input="SourceAlpha"/><feGaussianBlur stdDeviation="4.43" result="blur-2"/><feFlood flood-color="#d38200"/><feComposite operator="in" in2="blur-2"/><feComposite in="SourceGraphic"/></filter><filter id="filter-3"><feOffset dx="1.12" dy="1.12" input="SourceAlpha"/><feGaussianBlur stdDeviation="1.12" result="blur-3"/><feFlood flood-color="#114a89"/><feComposite operator="in" in2="blur-3"/><feComposite in="SourceGraphic"/></filter><linearGradient id="linear-gradient-3" x1="57.93" y1="71.62" x2="57.93" y2="97.9" gradientUnits="userSpaceOnUse"><stop offset="0" stop-color="#eef9ff"/><stop offset="1" stop-color="#a7c8ea"/></linearGradient><linearGradient id="linear-gradient-4" x1="50.26" y1="99.64" x2="71.55" y2="82.18" gradientUnits="userSpaceOnUse"><stop offset="0" stop-color="#a7c7de" stop-opacity="0"/><stop offset="1" stop-color="#a7c7de"/></linearGradient><linearGradient id="linear-gradient-5" x1="85.72" y1="71.62" x2="85.72" y2="97.9" xlink:href="#linear-gradient-3"/></defs><g id="Layer_2" data-name="Layer 2"><g id="text"><path class="cls-1" d="M4.16,51.14c0-5.79,8.34-9.87,10.42-14.9,2.17-5.21-.77-14,3.16-17.91s12.7-1,17.91-3.16c5-2.08,9.12-10.42,14.9-10.42s9.86,8.34,14.89,10.42c5.22,2.17,14-.77,17.91,3.16s1,12.7,3.16,17.91c2.09,5,10.43,9.11,10.43,14.9S88.6,61,86.51,66c-2.16,5.22.77,14-3.16,17.91s-12.69,1-17.91,3.16c-5,2.09-9.11,10.43-14.89,10.43s-9.87-8.34-14.9-10.43c-5.21-2.16-14,.77-17.91-3.16s-1-12.69-3.16-17.91C12.5,61,4.16,56.92,4.16,51.14Z"/><circle class="cls-2" cx="50.55" cy="51.14" r="31.84"/><g class="cls-3"><path class="cls-4" d="M85.72,108.57H50.81A20.67,20.67,0,0,1,30.14,87.9h0A20.67,20.67,0,0,1,50.81,67.24H85.72Z"/><path class="cls-5" d="M85.72,108.57H50.81A20.67,20.67,0,0,1,30.14,87.9h0A20.67,20.67,0,0,1,50.81,67.24H85.72Z"/><circle class="cls-6" cx="85.72" cy="79.85" r="28.72"/><path class="cls-7" d="M85.72,51.14a28.71,28.71,0,0,0-25.8,16.1H50.81A20.67,20.67,0,0,0,30.14,87.9h0a20.67,20.67,0,0,0,20.67,20.67H85.72a28.72,28.72,0,1,0,0-57.43Z"/></g></g></g></svg>