<?xml version="1.0" encoding="utf-8"?>
<!-- Generator: Adobe Illustrator 26.3.1, SVG Export Plug-In . SVG Version: 6.00 Build 0)  -->
<svg version="1.1" id="Layer_1" xmlns="http://www.w3.org/2000/svg" xmlns:xlink="http://www.w3.org/1999/xlink" x="0px" y="0px"
	 viewBox="0 0 100 95" style="enable-background:new 0 0 100 95;" xml:space="preserve">
<style type="text/css">
	.st0{fill:url(#SVGID_1_);}
	.st1{fill:none;stroke:#FCE39F;stroke-width:0.7389;stroke-miterlimit:10;}
	.st2{fill:url(#SVGID_00000132771055553357042020000000094266249925938587_);}
	.st3{fill:none;stroke:#FCDF8F;stroke-width:0.7389;stroke-miterlimit:10;}
	.st4{fill:url(#SVGID_00000103978064899805533070000005178224139452723631_);}
	.st5{fill:url(#SVGID_00000043428776061367804670000006451501375855465909_);}
	.st6{fill:url(#SVGID_00000033330546624378497230000011442686629113727153_);}
	.st7{fill:none;stroke:#BED7FB;stroke-width:0.5558;stroke-miterlimit:10;}
</style>
<g>
	<g>
		
			<image style="overflow:visible;opacity:0.4;" width="379" height="379" xlink:href="C5DC3F19.png"  transform="matrix(0.24 0 0 0.24 -2.1873 -1.9073)">
		</image>
		<g>
			<linearGradient id="SVGID_1_" gradientUnits="userSpaceOnUse" x1="41.4957" y1="12.4809" x2="41.4957" y2="74.4178">
				<stop  offset="0" style="stop-color:#FAF7DE"/>
				<stop  offset="1" style="stop-color:#F0BF7B"/>
			</linearGradient>
			<path class="st0" d="M1.7,41.8c0-5,7.2-8.5,8.9-12.8c1.9-4.5-0.7-12,2.7-15.4c3.4-3.4,10.9-0.9,15.4-2.7C33,9.2,36.5,2,41.5,2
				s8.5,7.2,12.8,8.9c4.5,1.9,12-0.7,15.4,2.7C73,17,70.5,24.5,72.3,29c1.8,4.3,8.9,7.8,8.9,12.8s-7.2,8.5-8.9,12.8
				c-1.9,4.5,0.7,12-2.7,15.4c-3.4,3.4-10.9,0.9-15.4,2.7c-4.3,1.8-7.8,8.9-12.8,8.9s-8.5-7.2-12.8-8.9c-4.5-1.9-12,0.7-15.4-2.7
				C10,66.5,12.5,59,10.7,54.5C8.9,50.2,1.7,46.7,1.7,41.8z"/>
			<path class="st1" d="M1.7,41.8c0-5,7.2-8.5,8.9-12.8c1.9-4.5-0.7-12,2.7-15.4c3.4-3.4,10.9-0.9,15.4-2.7C33,9.2,36.5,2,41.5,2
				s8.5,7.2,12.8,8.9c4.5,1.9,12-0.7,15.4,2.7C73,17,70.5,24.5,72.3,29c1.8,4.3,8.9,7.8,8.9,12.8s-7.2,8.5-8.9,12.8
				c-1.9,4.5,0.7,12-2.7,15.4c-3.4,3.4-10.9,0.9-15.4,2.7c-4.3,1.8-7.8,8.9-12.8,8.9s-8.5-7.2-12.8-8.9c-4.5-1.9-12,0.7-15.4-2.7
				C10,66.5,12.5,59,10.7,54.5C8.9,50.2,1.7,46.7,1.7,41.8z"/>
		</g>
	</g>
	<g>
		
			<image style="overflow:visible;opacity:0.4;" width="342" height="342" xlink:href="C5DC3F1B.png"  transform="matrix(0.24 0 0 0.24 4.9392 5.2192)">
		</image>
		<g>
			
				<linearGradient id="SVGID_00000094618119105520997540000010595304775596426158_" gradientUnits="userSpaceOnUse" x1="41.4957" y1="16.5714" x2="41.4957" y2="62.1656">
				<stop  offset="0" style="stop-color:#FAD05D"/>
				<stop  offset="1" style="stop-color:#F89C28"/>
			</linearGradient>
			<circle style="fill:url(#SVGID_00000094618119105520997540000010595304775596426158_);" cx="41.5" cy="41.8" r="27.3"/>
			<circle class="st3" cx="41.5" cy="41.8" r="27.3"/>
		</g>
	</g>
</g>
<g>
	
		<image style="overflow:visible;opacity:0.4;" width="332" height="236" xlink:href="C5DC3F1E.png"  transform="matrix(0.24 0 0 0.24 21.3516 39.1516)">
	</image>
	<g>
		<g>
			
				<linearGradient id="SVGID_00000107556043912591865080000006348596808390163642_" gradientUnits="userSpaceOnUse" x1="47.8248" y1="59.3244" x2="47.8248" y2="81.8531">
				<stop  offset="0" style="stop-color:#EEF9FF"/>
				<stop  offset="1" style="stop-color:#A7C8EA"/>
			</linearGradient>
			<path style="fill:url(#SVGID_00000107556043912591865080000006348596808390163642_);" d="M71.6,91H41.7C31.9,91,24,83.1,24,73.3
				l0,0c0-9.8,7.9-17.7,17.7-17.7h29.9V91z"/>
			
				<linearGradient id="SVGID_00000177476922925967609410000007862752081738044067_" gradientUnits="userSpaceOnUse" x1="41.2468" y1="83.3441" x2="59.4946" y2="68.381">
				<stop  offset="0" style="stop-color:#A7C7DE;stop-opacity:0"/>
				<stop  offset="1" style="stop-color:#A7C7DE"/>
			</linearGradient>
			<path style="fill:url(#SVGID_00000177476922925967609410000007862752081738044067_);" d="M71.6,91H41.7C31.9,91,24,83.1,24,73.3
				l0,0c0-9.8,7.9-17.7,17.7-17.7h29.9V91z"/>
			
				<linearGradient id="SVGID_00000013886939507120430770000016921971716073187989_" gradientUnits="userSpaceOnUse" x1="71.6457" y1="59.3245" x2="71.6457" y2="81.8531">
				<stop  offset="0" style="stop-color:#EEF9FF"/>
				<stop  offset="1" style="stop-color:#A7C8EA"/>
			</linearGradient>
			<circle style="fill:url(#SVGID_00000013886939507120430770000016921971716073187989_);" cx="71.6" cy="66.4" r="24.6"/>
			<path class="st7" d="M71.6,41.8c-9.7,0-18.1,5.6-22.1,13.8h-7.8c-9.8,0-17.7,7.9-17.7,17.7v0C24,83.1,31.9,91,41.7,91h29.9
				c13.6,0,24.6-11,24.6-24.6C96.3,52.8,85.2,41.8,71.6,41.8z"/>
		</g>
	</g>
</g>
</svg>
