<svg xmlns="http://www.w3.org/2000/svg" xmlns:xlink="http://www.w3.org/1999/xlink" viewBox="0 0 100 100"><defs><style>.cls-1{stroke:#fce39f;fill:url(#linear-gradient);filter:url(#filter);}.cls-1,.cls-2{stroke-miterlimit:10;stroke-width:0.7px;}.cls-2{stroke:#fcdf8f;fill:url(#linear-gradient-2);filter:url(#filter-2);}</style><linearGradient id="linear-gradient" x1="48.06" y1="16" x2="48.06" y2="84.26" gradientUnits="userSpaceOnUse"><stop offset="0" stop-color="#faf7de"/><stop offset="1" stop-color="#f0bf7b"/></linearGradient><filter id="filter" x="0" y="0" width="100" height="100" filterUnits="userSpaceOnUse"><feOffset dx="1.6" dy="1.6" input="SourceAlpha"/><feGaussianBlur stdDeviation="1.6" result="blur"/><feFlood flood-color="#114a89"/><feComposite operator="in" in2="blur"/><feComposite in="SourceGraphic"/></filter><linearGradient id="linear-gradient-2" x1="48.06" y1="20.51" x2="48.06" y2="70.76" gradientTransform="translate(84 -9.59) rotate(76.72)" gradientUnits="userSpaceOnUse"><stop offset="0" stop-color="#fad05d"/><stop offset="1" stop-color="#f89c28"/></linearGradient><filter id="filter-2" x="9.22" y="9.22" width="87" height="88" filterUnits="userSpaceOnUse"><feOffset dx="4.19" dy="4.19" input="SourceAlpha"/><feGaussianBlur stdDeviation="4.19" result="blur-2"/><feFlood flood-color="#d38200"/><feComposite operator="in" in2="blur-2"/><feComposite in="SourceGraphic"/></filter></defs><g id="Layer_2" data-name="Layer 2"><g id="text"><path class="cls-1" d="M4.23,48.28c0-5.47,7.88-9.32,9.85-14.08,2-4.92-.73-13.2,3-16.92s12-.94,16.93-3c4.75-2,8.6-9.85,14.07-9.85s9.32,7.88,14.07,9.85c4.93,2,13.21-.73,16.92,3s.94,12,3,16.92c2,4.76,9.85,8.61,9.85,14.08S84,57.6,82,62.35c-2.05,4.92.72,13.21-3,16.92s-12,.94-16.92,3c-4.75,2-8.61,9.85-14.07,9.85S38.74,84.23,34,82.26c-4.93-2.05-13.21.72-16.93-3s-.94-12-3-16.92C12.11,57.6,4.23,53.74,4.23,48.28Z"/><circle class="cls-2" cx="48.06" cy="48.28" r="30.08" transform="translate(-9.97 83.96) rotate(-76.72)"/></g></g></svg>